<?xml version="1.0" encoding="UTF-8" standalone="no"?>
<!DOCTYPE svg PUBLIC "-//W3C//DTD SVG 1.1//EN"
 "http://www.w3.org/Graphics/SVG/1.1/DTD/svg11.dtd">
<!-- Generated by graphviz version 2.49.3 (20211023.0002)
 -->
<!-- Pages: 1 -->
<svg width="383pt" height="169pt"
 viewBox="0.00 0.00 383.00 169.00" xmlns="http://www.w3.org/2000/svg" xmlns:xlink="http://www.w3.org/1999/xlink">
<g id="graph0" class="graph" transform="scale(1 1) rotate(0) translate(4 165)">
<polygon fill="white" stroke="transparent" points="-4,4 -4,-165 379,-165 379,4 -4,4"/>
<g id="node1" class="node">
<title></title>
</g>
<!-- A -->
<g id="node2" class="node">
<title>A</title>
<ellipse fill="none" stroke="black" cx="109" cy="-41" rx="18" ry="18"/>
<text text-anchor="middle" x="109" y="-37.3" font-family="Times New Roman,serif" font-size="14.00">A</text>
</g>
<!-- &#45;&gt;A -->
<g id="edge1" class="edge">
<title>&#45;&gt;A</title>
<path fill="none" stroke="black" d="M54.19,-41C62.65,-41 72.05,-41 80.6,-41"/>
<polygon fill="black" stroke="black" points="80.83,-44.5 90.83,-41 80.83,-37.5 80.83,-44.5"/>
</g>
<!-- B -->
<g id="node3" class="node">
<title>B</title>
<ellipse fill="none" stroke="black" cx="193" cy="-80" rx="18" ry="18"/>
<text text-anchor="middle" x="193" y="-76.3" font-family="Times New Roman,serif" font-size="14.00">B</text>
</g>
<!-- A&#45;&gt;B -->
<g id="edge2" class="edge">
<title>A&#45;&gt;B</title>
<path fill="none" stroke="black" d="M125.81,-48.52C137.57,-54.11 153.84,-61.85 167.31,-68.26"/>
<polygon fill="black" stroke="black" points="165.98,-71.5 176.52,-72.64 168.99,-65.18 165.98,-71.5"/>
<text text-anchor="middle" x="149" y="-63.8" font-family="Times New Roman,serif" font-size="14.00">a</text>
</g>
<!-- E -->
<g id="node4" class="node">
<title>E</title>
<ellipse fill="none" stroke="black" cx="193" cy="-22" rx="18" ry="18"/>
<ellipse fill="none" stroke="black" cx="193" cy="-22" rx="22" ry="22"/>
<text text-anchor="middle" x="193" y="-18.3" font-family="Times New Roman,serif" font-size="14.00">E</text>
</g>
<!-- A&#45;&gt;E -->
<g id="edge3" class="edge">
<title>A&#45;&gt;E</title>
<path fill="none" stroke="black" d="M126.59,-37.16C136.58,-34.84 149.61,-31.82 161.41,-29.09"/>
<polygon fill="black" stroke="black" points="162.4,-32.45 171.35,-26.78 160.82,-25.63 162.4,-32.45"/>
<text text-anchor="middle" x="149" y="-36.8" font-family="Times New Roman,serif" font-size="14.00">b</text>
</g>
<!-- B&#45;&gt;B -->
<g id="edge4" class="edge">
<title>B&#45;&gt;B</title>
<path fill="none" stroke="black" d="M185.33,-96.29C183.48,-106.39 186.04,-116 193,-116 197.46,-116 200.11,-112.06 200.95,-106.57"/>
<polygon fill="black" stroke="black" points="204.45,-106.19 200.67,-96.29 197.45,-106.38 204.45,-106.19"/>
<text text-anchor="middle" x="193" y="-119.8" font-family="Times New Roman,serif" font-size="14.00">a</text>
</g>
<!-- C -->
<g id="node5" class="node">
<title>C</title>
<ellipse fill="none" stroke="black" cx="277" cy="-110" rx="18" ry="18"/>
<text text-anchor="middle" x="277" y="-106.3" font-family="Times New Roman,serif" font-size="14.00">C</text>
</g>
<!-- B&#45;&gt;C -->
<g id="edge5" class="edge">
<title>B&#45;&gt;C</title>
<path fill="none" stroke="black" d="M210.2,-85.93C221.66,-90.12 237.25,-95.82 250.38,-100.63"/>
<polygon fill="black" stroke="black" points="249.24,-103.94 259.83,-104.09 251.64,-97.36 249.24,-103.94"/>
<text text-anchor="middle" x="237" y="-99.8" font-family="Times New Roman,serif" font-size="14.00">b</text>
</g>
<!-- C&#45;&gt;C -->
<g id="edge6" class="edge">
<title>C&#45;&gt;C</title>
<path fill="none" stroke="black" d="M269.97,-126.66C268.41,-136.62 270.75,-146 277,-146 281,-146 283.4,-142.15 284.2,-136.77"/>
<polygon fill="black" stroke="black" points="287.7,-136.6 284.03,-126.66 280.7,-136.72 287.7,-136.6"/>
<text text-anchor="middle" x="277" y="-149.8" font-family="Times New Roman,serif" font-size="14.00">a</text>
</g>
<!-- D -->
<g id="node6" class="node">
<title>D</title>
<ellipse fill="none" stroke="black" cx="357" cy="-75" rx="18" ry="18"/>
<text text-anchor="middle" x="357" y="-71.3" font-family="Times New Roman,serif" font-size="14.00">D</text>
</g>
<!-- C&#45;&gt;D -->
<g id="edge7" class="edge">
<title>C&#45;&gt;D</title>
<path fill="none" stroke="black" d="M293.78,-102.92C304.46,-98.13 318.79,-91.7 331.01,-86.22"/>
<polygon fill="black" stroke="black" points="332.55,-89.36 340.24,-82.07 329.68,-82.97 332.55,-89.36"/>
<text text-anchor="middle" x="317" y="-96.8" font-family="Times New Roman,serif" font-size="14.00">b</text>
</g>
<!-- D&#45;&gt;B -->
<g id="edge9" class="edge">
<title>D&#45;&gt;B</title>
<path fill="none" stroke="black" d="M338.95,-72.52C326.75,-70.87 309.9,-68.85 295,-68 279.03,-67.09 274.93,-66.54 259,-68 246.31,-69.16 232.41,-71.57 220.72,-73.93"/>
<polygon fill="black" stroke="black" points="219.78,-70.55 210.72,-76.04 221.23,-77.4 219.78,-70.55"/>
<text text-anchor="middle" x="277" y="-71.8" font-family="Times New Roman,serif" font-size="14.00">b</text>
</g>
<!-- D&#45;&gt;D -->
<g id="edge8" class="edge">
<title>D&#45;&gt;D</title>
<path fill="none" stroke="black" d="M349.97,-91.66C348.41,-101.62 350.75,-111 357,-111 361,-111 363.4,-107.15 364.2,-101.77"/>
<polygon fill="black" stroke="black" points="367.7,-101.6 364.03,-91.66 360.7,-101.72 367.7,-101.6"/>
<text text-anchor="middle" x="357" y="-114.8" font-family="Times New Roman,serif" font-size="14.00">a</text>
</g>
</g>
</svg>
