<?xml version="1.0" encoding="UTF-8" standalone="no"?>
<!DOCTYPE svg PUBLIC "-//W3C//DTD SVG 1.1//EN"
 "http://www.w3.org/Graphics/SVG/1.1/DTD/svg11.dtd">
<!-- Generated by graphviz version 2.50.0 (20211204.2007)
 -->
<!-- Pages: 1 -->
<svg width="568pt" height="458pt"
 viewBox="0.00 0.00 568.39 458.20" xmlns="http://www.w3.org/2000/svg" xmlns:xlink="http://www.w3.org/1999/xlink">
<g id="graph0" class="graph" transform="scale(1 1) rotate(0) translate(4 454.2)">
<polygon fill="white" stroke="transparent" points="-4,4 -4,-454.2 564.39,-454.2 564.39,4 -4,4"/>
<g id="node1" class="node">
<title></title>
</g>
<!-- Q -->
<g id="node2" class="node">
<title>Q</title>
<ellipse fill="none" stroke="black" cx="109" cy="-144.2" rx="18" ry="18"/>
<text text-anchor="middle" x="109" y="-140.5" font-family="Times New Roman,serif" font-size="14.00">Q</text>
</g>
<!-- &#45;&gt;Q -->
<g id="edge1" class="edge">
<title>&#45;&gt;Q</title>
<path fill="none" stroke="black" d="M54.19,-144.2C62.65,-144.2 72.05,-144.2 80.6,-144.2"/>
<polygon fill="black" stroke="black" points="80.83,-147.7 90.83,-144.2 80.83,-140.7 80.83,-147.7"/>
</g>
<!-- Z -->
<g id="node3" class="node">
<title>Z</title>
<ellipse fill="none" stroke="black" cx="192" cy="-314.2" rx="18" ry="18"/>
<ellipse fill="none" stroke="black" cx="192" cy="-314.2" rx="22" ry="22"/>
<text text-anchor="middle" x="192" y="-310.5" font-family="Times New Roman,serif" font-size="14.00">Z</text>
</g>
<!-- Q&#45;&gt;Z -->
<g id="edge2" class="edge">
<title>Q&#45;&gt;Z</title>
<path fill="none" stroke="black" d="M117.62,-160.2C131.29,-188.88 160.13,-249.42 177.31,-285.46"/>
<polygon fill="black" stroke="black" points="174.15,-286.98 181.61,-294.5 180.47,-283.97 174.15,-286.98"/>
<text text-anchor="middle" x="148.5" y="-233" font-family="Times New Roman,serif" font-size="14.00">0</text>
</g>
<!-- Q₁ -->
<g id="node4" class="node">
<title>Q₁</title>
<ellipse fill="none" stroke="black" cx="192" cy="-144.2" rx="20.6" ry="20.6"/>
<text text-anchor="middle" x="192" y="-140.5" font-family="Times New Roman,serif" font-size="14.00">Q₁</text>
</g>
<!-- Q&#45;&gt;Q₁ -->
<g id="edge3" class="edge">
<title>Q&#45;&gt;Q₁</title>
<path fill="none" stroke="black" d="M127.18,-144.2C136.99,-144.2 149.58,-144.2 160.97,-144.2"/>
<polygon fill="black" stroke="black" points="160.99,-147.7 170.99,-144.2 160.99,-140.7 160.99,-147.7"/>
<text text-anchor="middle" x="148.5" y="-148" font-family="Times New Roman,serif" font-size="14.00">1</text>
</g>
<!-- Q₂ -->
<g id="node5" class="node">
<title>Q₂</title>
<ellipse fill="none" stroke="black" cx="370.39" cy="-88.2" rx="20.6" ry="20.6"/>
<text text-anchor="middle" x="370.39" y="-84.5" font-family="Times New Roman,serif" font-size="14.00">Q₂</text>
</g>
<!-- Q&#45;&gt;Q₂ -->
<g id="edge4" class="edge">
<title>Q&#45;&gt;Q₂</title>
<path fill="none" stroke="black" d="M118.02,-128.22C134.45,-97.48 175.26,-30.9 232,-5.2 276.98,15.16 325.5,-32.41 351.13,-63.65"/>
<polygon fill="black" stroke="black" points="348.46,-65.92 357.43,-71.57 353.94,-61.56 348.46,-65.92"/>
<text text-anchor="middle" x="235.5" y="-9" font-family="Times New Roman,serif" font-size="14.00">2</text>
</g>
<!-- T -->
<g id="node6" class="node">
<title>T</title>
<ellipse fill="none" stroke="black" cx="281.8" cy="-333.2" rx="18" ry="18"/>
<text text-anchor="middle" x="281.8" y="-329.5" font-family="Times New Roman,serif" font-size="14.00">T</text>
</g>
<!-- Z&#45;&gt;T -->
<g id="edge5" class="edge">
<title>Z&#45;&gt;T</title>
<path fill="none" stroke="black" d="M213.81,-318.71C225.77,-321.3 240.93,-324.58 253.81,-327.36"/>
<polygon fill="black" stroke="black" points="253.45,-330.87 263.96,-329.56 254.93,-324.03 253.45,-330.87"/>
<text text-anchor="middle" x="235.5" y="-327" font-family="Times New Roman,serif" font-size="14.00">0</text>
</g>
<!-- Z&#45;&gt;T -->
<g id="edge6" class="edge">
<title>Z&#45;&gt;T</title>
<path fill="none" stroke="black" d="M212.43,-304.85C220.7,-302.08 230.4,-300.44 239,-303.2 246.6,-305.65 253.99,-310.04 260.39,-314.73"/>
<polygon fill="black" stroke="black" points="258.42,-317.64 268.42,-321.14 262.79,-312.17 258.42,-317.64"/>
<text text-anchor="middle" x="235.5" y="-307" font-family="Times New Roman,serif" font-size="14.00">1</text>
</g>
<!-- Z&#45;&gt;T -->
<g id="edge7" class="edge">
<title>Z&#45;&gt;T</title>
<path fill="none" stroke="black" d="M208.82,-328.99C215.46,-334.23 223.59,-339.5 232,-342.2 239.33,-344.56 247.49,-344.18 255.01,-342.68"/>
<polygon fill="black" stroke="black" points="255.96,-346.05 264.72,-340.09 254.15,-339.28 255.96,-346.05"/>
<text text-anchor="middle" x="235.5" y="-347" font-family="Times New Roman,serif" font-size="14.00">2</text>
</g>
<!-- Q₀ -->
<g id="node7" class="node">
<title>Q₀</title>
<ellipse fill="none" stroke="black" cx="281.8" cy="-138.2" rx="20.63" ry="20.63"/>
<ellipse fill="none" stroke="black" cx="281.8" cy="-138.2" rx="24.6" ry="24.6"/>
<text text-anchor="middle" x="281.8" y="-134.5" font-family="Times New Roman,serif" font-size="14.00">Q₀</text>
</g>
<!-- Q₁&#45;&gt;Q₀ -->
<g id="edge16" class="edge">
<title>Q₁&#45;&gt;Q₀</title>
<path fill="none" stroke="black" d="M209.27,-132.55C215.97,-128.43 224.03,-124.3 232,-122.2 237.97,-120.64 244.27,-121.09 250.3,-122.58"/>
<polygon fill="black" stroke="black" points="249.47,-125.99 260.07,-125.89 251.72,-119.36 249.47,-125.99"/>
<text text-anchor="middle" x="235.5" y="-126" font-family="Times New Roman,serif" font-size="14.00">2</text>
</g>
<!-- Q₃ -->
<g id="node8" class="node">
<title>Q₃</title>
<ellipse fill="none" stroke="black" cx="454.99" cy="-177.2" rx="20.6" ry="20.6"/>
<text text-anchor="middle" x="454.99" y="-173.5" font-family="Times New Roman,serif" font-size="14.00">Q₃</text>
</g>
<!-- Q₁&#45;&gt;Q₃ -->
<g id="edge14" class="edge">
<title>Q₁&#45;&gt;Q₃</title>
<path fill="none" stroke="black" d="M195.16,-165.16C198.69,-187.46 207.93,-221.75 232,-238.2 299.59,-284.4 345.14,-278.87 416.19,-238.2 428.48,-231.17 437.3,-218.37 443.32,-206.3"/>
<polygon fill="black" stroke="black" points="446.64,-207.45 447.56,-196.9 440.26,-204.58 446.64,-207.45"/>
<text text-anchor="middle" x="328.1" y="-274" font-family="Times New Roman,serif" font-size="14.00">0</text>
</g>
<!-- Q₄ -->
<g id="node9" class="node">
<title>Q₄</title>
<ellipse fill="none" stroke="black" cx="539.59" cy="-111.2" rx="20.6" ry="20.6"/>
<text text-anchor="middle" x="539.59" y="-107.5" font-family="Times New Roman,serif" font-size="14.00">Q₄</text>
</g>
<!-- Q₁&#45;&gt;Q₄ -->
<g id="edge15" class="edge">
<title>Q₁&#45;&gt;Q₄</title>
<path fill="none" stroke="black" d="M198.82,-124.28C209.46,-92.59 235.23,-34.2 280.8,-34.2 280.8,-34.2 280.8,-34.2 455.99,-34.2 486.14,-34.2 509.88,-62 524.02,-84.19"/>
<polygon fill="black" stroke="black" points="521.15,-86.21 529.32,-92.96 527.14,-82.59 521.15,-86.21"/>
<text text-anchor="middle" x="370.39" y="-38" font-family="Times New Roman,serif" font-size="14.00">1</text>
</g>
<!-- Q₂&#45;&gt;Q₁ -->
<g id="edge17" class="edge">
<title>Q₂&#45;&gt;Q₁</title>
<path fill="none" stroke="black" d="M349.56,-84.39C326.5,-80.85 287.69,-77.67 257,-89.2 239.9,-95.63 224.27,-108.84 212.74,-120.71"/>
<polygon fill="black" stroke="black" points="210.01,-118.51 205.78,-128.23 215.15,-123.27 210.01,-118.51"/>
<text text-anchor="middle" x="281.8" y="-93" font-family="Times New Roman,serif" font-size="14.00">0</text>
</g>
<!-- Q₂&#45;&gt;Q₂ -->
<g id="edge18" class="edge">
<title>Q₂&#45;&gt;Q₂</title>
<path fill="none" stroke="black" d="M362.8,-107.77C361.63,-117.88 364.16,-127 370.39,-127 374.39,-127 376.86,-123.26 377.82,-117.91"/>
<polygon fill="black" stroke="black" points="381.32,-117.83 377.99,-107.77 374.32,-117.71 381.32,-117.83"/>
<text text-anchor="middle" x="370.39" y="-130.8" font-family="Times New Roman,serif" font-size="14.00">1</text>
</g>
<!-- Q₂&#45;&gt;Q₃ -->
<g id="edge19" class="edge">
<title>Q₂&#45;&gt;Q₃</title>
<path fill="none" stroke="black" d="M385.41,-103.3C398.54,-117.45 418.33,-138.78 433.28,-154.89"/>
<polygon fill="black" stroke="black" points="430.82,-157.38 440.19,-162.33 435.95,-152.62 430.82,-157.38"/>
<text text-anchor="middle" x="412.69" y="-139" font-family="Times New Roman,serif" font-size="14.00">2</text>
</g>
<!-- T&#45;&gt;T -->
<g id="edge8" class="edge">
<title>T&#45;&gt;T</title>
<path fill="none" stroke="black" d="M279.02,-351.36C278.6,-360.74 279.52,-369.2 281.8,-369.2 283.19,-369.2 284.07,-366.06 284.45,-361.48"/>
<polygon fill="black" stroke="black" points="287.95,-361.4 284.57,-351.36 280.96,-361.32 287.95,-361.4"/>
<text text-anchor="middle" x="281.8" y="-373" font-family="Times New Roman,serif" font-size="14.00">0</text>
</g>
<!-- T&#45;&gt;T -->
<g id="edge9" class="edge">
<title>T&#45;&gt;T</title>
<path fill="none" stroke="black" d="M277.23,-350.9C274.7,-368.2 276.23,-387.2 281.8,-387.2 286.28,-387.2 288.14,-374.9 287.38,-361.08"/>
<polygon fill="black" stroke="black" points="290.84,-360.51 286.37,-350.9 283.88,-361.2 290.84,-360.51"/>
<text text-anchor="middle" x="281.8" y="-391" font-family="Times New Roman,serif" font-size="14.00">1</text>
</g>
<!-- T&#45;&gt;T -->
<g id="edge10" class="edge">
<title>T&#45;&gt;T</title>
<path fill="none" stroke="black" d="M276.13,-350.56C270.79,-375.02 272.68,-405.2 281.8,-405.2 289.71,-405.2 292.18,-382.51 289.21,-360.52"/>
<polygon fill="black" stroke="black" points="292.64,-359.8 287.46,-350.56 285.74,-361.01 292.64,-359.8"/>
<text text-anchor="middle" x="281.8" y="-409" font-family="Times New Roman,serif" font-size="14.00">2</text>
</g>
<!-- Q₀&#45;&gt;Q₁ -->
<g id="edge12" class="edge">
<title>Q₀&#45;&gt;Q₁</title>
<path fill="none" stroke="black" d="M256.93,-139.95C251.07,-140.36 244.81,-140.81 239,-141.2 233.97,-141.55 228.64,-141.91 223.45,-142.25"/>
<polygon fill="black" stroke="black" points="222.91,-138.78 213.15,-142.92 223.36,-145.76 222.91,-138.78"/>
<text text-anchor="middle" x="235.5" y="-145" font-family="Times New Roman,serif" font-size="14.00">1</text>
</g>
<!-- Q₀&#45;&gt;Q₂ -->
<g id="edge13" class="edge">
<title>Q₀&#45;&gt;Q₂</title>
<path fill="none" stroke="black" d="M303.76,-126.1C315.68,-119.22 330.72,-110.54 343.39,-103.22"/>
<polygon fill="black" stroke="black" points="345.21,-106.21 352.12,-98.18 341.71,-100.15 345.21,-106.21"/>
<text text-anchor="middle" x="328.1" y="-117" font-family="Times New Roman,serif" font-size="14.00">2</text>
</g>
<!-- Q₀&#45;&gt;Q₀ -->
<g id="edge11" class="edge">
<title>Q₀&#45;&gt;Q₀</title>
<path fill="none" stroke="black" d="M273.31,-161.54C272.5,-171.98 275.33,-181 281.8,-181 285.94,-181 288.59,-177.3 289.75,-171.89"/>
<polygon fill="black" stroke="black" points="293.26,-171.71 290.29,-161.54 286.27,-171.34 293.26,-171.71"/>
<text text-anchor="middle" x="281.8" y="-184.8" font-family="Times New Roman,serif" font-size="14.00">0</text>
</g>
<!-- Q₃&#45;&gt;Q₁ -->
<g id="edge22" class="edge">
<title>Q₃&#45;&gt;Q₁</title>
<path fill="none" stroke="black" d="M435.87,-185.72C400.26,-201.19 319.22,-230.11 257,-205.2 238.71,-197.88 222.67,-182.57 211.22,-169.12"/>
<polygon fill="black" stroke="black" points="213.72,-166.64 204.71,-161.07 208.28,-171.04 213.72,-166.64"/>
<text text-anchor="middle" x="328.1" y="-218" font-family="Times New Roman,serif" font-size="14.00">2</text>
</g>
<!-- Q₃&#45;&gt;Q₀ -->
<g id="edge21" class="edge">
<title>Q₃&#45;&gt;Q₀</title>
<path fill="none" stroke="black" d="M434.53,-172.77C405.71,-166.21 351.3,-153.81 316.07,-145.78"/>
<polygon fill="black" stroke="black" points="316.77,-142.35 306.24,-143.55 315.22,-149.18 316.77,-142.35"/>
<text text-anchor="middle" x="370.39" y="-166" font-family="Times New Roman,serif" font-size="14.00">1</text>
</g>
<!-- Q₃&#45;&gt;Q₄ -->
<g id="edge20" class="edge">
<title>Q₃&#45;&gt;Q₄</title>
<path fill="none" stroke="black" d="M469.16,-161.84C476.07,-154.26 484.93,-145.25 493.79,-138.2 499.42,-133.72 505.87,-129.43 512.07,-125.63"/>
<polygon fill="black" stroke="black" points="514.02,-128.55 520.88,-120.47 510.48,-122.51 514.02,-128.55"/>
<text text-anchor="middle" x="497.29" y="-142" font-family="Times New Roman,serif" font-size="14.00">0</text>
</g>
<!-- Q₄&#45;&gt;Q₂ -->
<g id="edge23" class="edge">
<title>Q₄&#45;&gt;Q₂</title>
<path fill="none" stroke="black" d="M518.78,-108.48C489.76,-104.49 435.46,-97.02 401.49,-92.34"/>
<polygon fill="black" stroke="black" points="401.61,-88.83 391.23,-90.93 400.66,-95.76 401.61,-88.83"/>
<text text-anchor="middle" x="454.99" y="-106" font-family="Times New Roman,serif" font-size="14.00">0</text>
</g>
<!-- Q₄&#45;&gt;Q₃ -->
<g id="edge24" class="edge">
<title>Q₄&#45;&gt;Q₃</title>
<path fill="none" stroke="black" d="M526.1,-127.61C519.23,-135.94 510.21,-145.82 500.79,-153.2 495.5,-157.35 489.4,-161.15 483.43,-164.45"/>
<polygon fill="black" stroke="black" points="481.57,-161.47 474.3,-169.19 484.79,-167.69 481.57,-161.47"/>
<text text-anchor="middle" x="497.29" y="-161" font-family="Times New Roman,serif" font-size="14.00">1</text>
</g>
<!-- Q₄&#45;&gt;Q₄ -->
<g id="edge25" class="edge">
<title>Q₄&#45;&gt;Q₄</title>
<path fill="none" stroke="black" d="M531.99,-130.77C530.82,-140.88 533.35,-150 539.59,-150 543.58,-150 546.06,-146.26 547.01,-140.91"/>
<polygon fill="black" stroke="black" points="550.51,-140.83 547.19,-130.77 543.51,-140.71 550.51,-140.83"/>
<text text-anchor="middle" x="539.59" y="-153.8" font-family="Times New Roman,serif" font-size="14.00">2</text>
</g>
</g>
</svg>
