<?xml version="1.0" encoding="UTF-8" standalone="no"?>
<!DOCTYPE svg PUBLIC "-//W3C//DTD SVG 1.1//EN"
 "http://www.w3.org/Graphics/SVG/1.1/DTD/svg11.dtd">
<!-- Generated by graphviz version 2.49.3 (20211023.0002)
 -->
<!-- Pages: 1 -->
<svg width="320pt" height="120pt"
 viewBox="0.00 0.00 319.79 119.60" xmlns="http://www.w3.org/2000/svg" xmlns:xlink="http://www.w3.org/1999/xlink">
<g id="graph0" class="graph" transform="scale(1 1) rotate(0) translate(4 115.6)">
<polygon fill="white" stroke="transparent" points="-4,4 -4,-115.6 315.79,-115.6 315.79,4 -4,4"/>
<g id="node1" class="node">
<title></title>
</g>
<!-- Q₀ -->
<g id="node2" class="node">
<title>Q₀</title>
<ellipse fill="none" stroke="black" cx="111.8" cy="-24.8" rx="20.6" ry="20.6"/>
<text text-anchor="middle" x="111.8" y="-21.1" font-family="Times New Roman,serif" font-size="14.00">Q₀</text>
</g>
<!-- &#45;&gt;Q₀ -->
<g id="edge1" class="edge">
<title>&#45;&gt;Q₀</title>
<path fill="none" stroke="black" d="M54.2,-24.8C62.62,-24.8 72.01,-24.8 80.69,-24.8"/>
<polygon fill="black" stroke="black" points="80.81,-28.3 90.81,-24.8 80.81,-21.3 80.81,-28.3"/>
</g>
<!-- Q₀&#45;&gt;Q₀ -->
<g id="edge2" class="edge">
<title>Q₀&#45;&gt;Q₀</title>
<path fill="none" stroke="black" d="M104.88,-44.76C103.93,-54.72 106.23,-63.6 111.8,-63.6 115.28,-63.6 117.48,-60.13 118.41,-55.1"/>
<polygon fill="black" stroke="black" points="121.92,-54.86 118.71,-44.76 114.92,-54.65 121.92,-54.86"/>
<text text-anchor="middle" x="111.8" y="-67.4" font-family="Times New Roman,serif" font-size="14.00">a</text>
</g>
<!-- Q₁ -->
<g id="node3" class="node">
<title>Q₁</title>
<ellipse fill="none" stroke="black" cx="201.39" cy="-24.8" rx="20.63" ry="20.63"/>
<ellipse fill="none" stroke="black" cx="201.39" cy="-24.8" rx="24.6" ry="24.6"/>
<text text-anchor="middle" x="201.39" y="-21.1" font-family="Times New Roman,serif" font-size="14.00">Q₁</text>
</g>
<!-- Q₀&#45;&gt;Q₁ -->
<g id="edge3" class="edge">
<title>Q₀&#45;&gt;Q₁</title>
<path fill="none" stroke="black" d="M132.68,-24.8C142.65,-24.8 155,-24.8 166.42,-24.8"/>
<polygon fill="black" stroke="black" points="166.55,-28.3 176.55,-24.8 166.55,-21.3 166.55,-28.3"/>
<text text-anchor="middle" x="154.6" y="-28.6" font-family="Times New Roman,serif" font-size="14.00">b</text>
</g>
<!-- Q₁&#45;&gt;Q₁ -->
<g id="edge4" class="edge">
<title>Q₁&#45;&gt;Q₁</title>
<path fill="none" stroke="black" d="M192.9,-48.13C192.1,-58.57 194.93,-67.6 201.39,-67.6 205.54,-67.6 208.19,-63.89 209.35,-58.48"/>
<polygon fill="black" stroke="black" points="212.86,-58.3 209.88,-48.13 205.87,-57.94 212.86,-58.3"/>
<text text-anchor="middle" x="201.39" y="-71.4" font-family="Times New Roman,serif" font-size="14.00">a</text>
</g>
<!-- Q₂ -->
<g id="node4" class="node">
<title>Q₂</title>
<ellipse fill="none" stroke="black" cx="290.99" cy="-24.8" rx="20.6" ry="20.6"/>
<text text-anchor="middle" x="290.99" y="-21.1" font-family="Times New Roman,serif" font-size="14.00">Q₂</text>
</g>
<!-- Q₁&#45;&gt;Q₂ -->
<g id="edge5" class="edge">
<title>Q₁&#45;&gt;Q₂</title>
<path fill="none" stroke="black" d="M226.33,-24.8C236.7,-24.8 248.94,-24.8 259.91,-24.8"/>
<polygon fill="black" stroke="black" points="259.94,-28.3 269.94,-24.8 259.94,-21.3 259.94,-28.3"/>
<text text-anchor="middle" x="248.19" y="-28.6" font-family="Times New Roman,serif" font-size="14.00">b</text>
</g>
<!-- Q₂&#45;&gt;Q₂ -->
<g id="edge6" class="edge">
<title>Q₂&#45;&gt;Q₂</title>
<path fill="none" stroke="black" d="M287.13,-45.55C286.71,-55.18 288,-63.6 290.99,-63.6 292.82,-63.6 294.01,-60.47 294.56,-55.85"/>
<polygon fill="black" stroke="black" points="298.07,-55.65 294.85,-45.55 291.07,-55.45 298.07,-55.65"/>
<text text-anchor="middle" x="290.99" y="-67.4" font-family="Times New Roman,serif" font-size="14.00">a</text>
</g>
<!-- Q₂&#45;&gt;Q₂ -->
<g id="edge7" class="edge">
<title>Q₂&#45;&gt;Q₂</title>
<path fill="none" stroke="black" d="M284.52,-44.59C281.37,-62.46 283.53,-81.6 290.99,-81.6 297.06,-81.6 299.62,-68.96 298.68,-54.64"/>
<polygon fill="black" stroke="black" points="302.14,-54.1 297.46,-44.59 295.19,-54.94 302.14,-54.1"/>
<text text-anchor="middle" x="290.99" y="-85.4" font-family="Times New Roman,serif" font-size="14.00">b</text>
</g>
</g>
</svg>
