<?xml version="1.0" encoding="UTF-8" standalone="no"?>
<!DOCTYPE svg PUBLIC "-//W3C//DTD SVG 1.1//EN"
 "http://www.w3.org/Graphics/SVG/1.1/DTD/svg11.dtd">
<!-- Generated by graphviz version 2.49.3 (20211023.0002)
 -->
<!-- Pages: 1 -->
<svg width="302pt" height="153pt"
 viewBox="0.00 0.00 302.00 153.03" xmlns="http://www.w3.org/2000/svg" xmlns:xlink="http://www.w3.org/1999/xlink">
<g id="graph0" class="graph" transform="scale(1 1) rotate(0) translate(4 149.03)">
<polygon fill="white" stroke="transparent" points="-4,4 -4,-149.03 298,-149.03 298,4 -4,4"/>
<g id="node1" class="node">
<title></title>
</g>
<!-- A -->
<g id="node2" class="node">
<title>A</title>
<ellipse fill="none" stroke="black" cx="109" cy="-24.03" rx="18" ry="18"/>
<text text-anchor="middle" x="109" y="-20.33" font-family="Times New Roman,serif" font-size="14.00">A</text>
</g>
<!-- &#45;&gt;A -->
<g id="edge1" class="edge">
<title>&#45;&gt;A</title>
<path fill="none" stroke="black" d="M54.19,-24.03C62.65,-24.03 72.05,-24.03 80.6,-24.03"/>
<polygon fill="black" stroke="black" points="80.83,-27.53 90.83,-24.03 80.83,-20.53 80.83,-27.53"/>
</g>
<!-- A&#45;&gt;A -->
<g id="edge2" class="edge">
<title>A&#45;&gt;A</title>
<path fill="none" stroke="black" d="M102.62,-41.06C101.32,-50.88 103.45,-60.03 109,-60.03 112.47,-60.03 114.6,-56.45 115.4,-51.38"/>
<polygon fill="black" stroke="black" points="118.9,-51.06 115.38,-41.06 111.9,-51.07 118.9,-51.06"/>
<text text-anchor="middle" x="109" y="-63.83" font-family="Times New Roman,serif" font-size="14.00">a</text>
</g>
<!-- B -->
<g id="node3" class="node">
<title>B</title>
<ellipse fill="none" stroke="black" cx="189" cy="-24.03" rx="18" ry="18"/>
<text text-anchor="middle" x="189" y="-20.33" font-family="Times New Roman,serif" font-size="14.00">B</text>
</g>
<!-- A&#45;&gt;B -->
<g id="edge3" class="edge">
<title>A&#45;&gt;B</title>
<path fill="none" stroke="black" d="M125.18,-32.69C131.16,-35.63 138.21,-38.55 145,-40.03 151.44,-41.43 158.2,-40.25 164.41,-38.02"/>
<polygon fill="black" stroke="black" points="165.92,-41.18 173.58,-33.86 163.03,-34.81 165.92,-41.18"/>
<text text-anchor="middle" x="149" y="-43.83" font-family="Times New Roman,serif" font-size="14.00">b</text>
</g>
<!-- A&#45;&gt;B -->
<g id="edge4" class="edge">
<title>A&#45;&gt;B</title>
<path fill="none" stroke="black" d="M127.15,-21.94C135.02,-21.22 144.48,-20.66 153,-21.03 155.56,-21.13 158.22,-21.29 160.88,-21.47"/>
<polygon fill="black" stroke="black" points="160.68,-24.97 170.93,-22.27 161.24,-17.99 160.68,-24.97"/>
<text text-anchor="middle" x="149" y="-24.83" font-family="Times New Roman,serif" font-size="14.00">c</text>
</g>
<!-- B&#45;&gt;A -->
<g id="edge5" class="edge">
<title>B&#45;&gt;A</title>
<path fill="none" stroke="black" d="M175.78,-11.43C167.48,-4.42 156.03,2.27 145,-1.03 140.49,-2.37 136.02,-4.51 131.86,-6.95"/>
<polygon fill="black" stroke="black" points="129.76,-4.15 123.36,-12.6 133.63,-9.98 129.76,-4.15"/>
<text text-anchor="middle" x="149" y="-4.83" font-family="Times New Roman,serif" font-size="14.00">a</text>
</g>
<!-- B&#45;&gt;B -->
<g id="edge6" class="edge">
<title>B&#45;&gt;B</title>
<path fill="none" stroke="black" d="M182.27,-41.06C180.89,-50.88 183.14,-60.03 189,-60.03 192.66,-60.03 194.92,-56.45 195.75,-51.38"/>
<polygon fill="black" stroke="black" points="199.25,-51.06 195.73,-41.06 192.25,-51.07 199.25,-51.06"/>
<text text-anchor="middle" x="189" y="-63.83" font-family="Times New Roman,serif" font-size="14.00">b</text>
</g>
<!-- C -->
<g id="node4" class="node">
<title>C</title>
<ellipse fill="none" stroke="black" cx="272" cy="-24.03" rx="18" ry="18"/>
<ellipse fill="none" stroke="black" cx="272" cy="-24.03" rx="22" ry="22"/>
<text text-anchor="middle" x="272" y="-20.33" font-family="Times New Roman,serif" font-size="14.00">C</text>
</g>
<!-- B&#45;&gt;C -->
<g id="edge7" class="edge">
<title>B&#45;&gt;C</title>
<path fill="none" stroke="black" d="M207.18,-24.03C216.61,-24.03 228.6,-24.03 239.64,-24.03"/>
<polygon fill="black" stroke="black" points="239.81,-27.53 249.81,-24.03 239.81,-20.53 239.81,-27.53"/>
<text text-anchor="middle" x="228.5" y="-27.83" font-family="Times New Roman,serif" font-size="14.00">c</text>
</g>
<!-- C&#45;&gt;C -->
<g id="edge8" class="edge">
<title>C&#45;&gt;C</title>
<path fill="none" stroke="black" d="M269.41,-46.24C269.19,-55.82 270.06,-64.03 272,-64.03 273.18,-64.03 273.97,-60.98 274.35,-56.43"/>
<polygon fill="black" stroke="black" points="277.85,-56.32 274.59,-46.24 270.86,-56.15 277.85,-56.32"/>
<text text-anchor="middle" x="272" y="-67.83" font-family="Times New Roman,serif" font-size="14.00">a</text>
</g>
<!-- C&#45;&gt;C -->
<g id="edge9" class="edge">
<title>C&#45;&gt;C</title>
<path fill="none" stroke="black" d="M267.52,-45.74C265.67,-63.54 267.16,-82.03 272,-82.03 275.89,-82.03 277.62,-70.06 277.18,-56.11"/>
<polygon fill="black" stroke="black" points="280.65,-55.48 276.48,-45.74 273.67,-55.96 280.65,-55.48"/>
<text text-anchor="middle" x="272" y="-85.83" font-family="Times New Roman,serif" font-size="14.00">b</text>
</g>
<!-- C&#45;&gt;C -->
<g id="edge10" class="edge">
<title>C&#45;&gt;C</title>
<path fill="none" stroke="black" d="M266.28,-45.42C262.1,-70.63 264,-100.03 272,-100.03 278.94,-100.03 281.29,-77.92 279.06,-55.61"/>
<polygon fill="black" stroke="black" points="282.5,-54.88 277.72,-45.42 275.56,-55.79 282.5,-54.88"/>
<text text-anchor="middle" x="272" y="-103.83" font-family="Times New Roman,serif" font-size="14.00">c</text>
</g>
</g>
</svg>
